<svg width="16" height="16" viewBox="0 0 16 16" fill="none" xmlns="http://www.w3.org/2000/svg">
<path d="M14.3236 14.8832C14.6858 15.2434 15.2449 14.6875 14.8827 14.3351L11.9297 11.3909C12.9298 10.2868 13.5361 8.83036 13.5361 7.23297C13.5361 3.79544 10.725 1 7.26807 1C3.81118 1 1 3.79544 1 7.23297C1 10.6705 3.81118 13.4659 7.26807 13.4659C8.82721 13.4659 10.2682 12.8943 11.3707 11.9468L14.3236 14.8832ZM1.78666 7.23297C1.78666 4.22611 4.25136 1.78304 7.26728 1.78304C10.2911 1.78304 12.7479 4.22611 12.7479 7.23297C12.7479 10.2398 10.2911 12.6829 7.26728 12.6829C4.25136 12.6829 1.78666 10.2398 1.78666 7.23297Z" fill="#090C0F" stroke="#090C0F" stroke-width="0.5"/>
</svg>
