<svg width="108" height="14" viewBox="0 0 108 14" fill="none" xmlns="http://www.w3.org/2000/svg">
<path d="M0.576 6.628C0.576 5.38 0.834 4.27 1.35 3.298C1.878 2.314 2.622 1.552 3.582 1.012C4.542 0.46 5.646 0.184 6.894 0.184C8.478 0.184 9.81 0.61 10.89 1.462C11.97 2.302 12.666 3.448 12.978 4.9H9.18C8.952 4.42 8.634 4.054 8.226 3.802C7.83 3.55 7.368 3.424 6.84 3.424C6.024 3.424 5.37 3.718 4.878 4.306C4.398 4.882 4.158 5.656 4.158 6.628C4.158 7.612 4.398 8.398 4.878 8.986C5.37 9.562 6.024 9.85 6.84 9.85C7.368 9.85 7.83 9.724 8.226 9.472C8.634 9.22 8.952 8.854 9.18 8.374H12.978C12.666 9.826 11.97 10.978 10.89 11.83C9.81 12.67 8.478 13.09 6.894 13.09C5.646 13.09 4.542 12.82 3.582 12.28C2.622 11.728 1.878 10.966 1.35 9.994C0.834 9.01 0.576 7.888 0.576 6.628ZM22.6766 10.93H18.1766L17.4926 13H13.7846L18.4106 0.309999H22.4786L27.0866 13H23.3606L22.6766 10.93ZM21.7946 8.23L20.4266 4.126L19.0766 8.23H21.7946ZM31.7645 10.3H35.7065V13H28.2365V0.309999H31.7645V10.3ZM40.6063 0.309999V13H37.0783V0.309999H40.6063ZM50.7154 4.486C50.5114 4.15 50.2294 3.892 49.8694 3.712C49.5214 3.532 49.1074 3.442 48.6274 3.442C47.7394 3.442 47.0374 3.73 46.5214 4.306C46.0174 4.882 45.7654 5.656 45.7654 6.628C45.7654 7.72 46.0354 8.554 46.5754 9.13C47.1274 9.694 47.9254 9.976 48.9694 9.976C50.2054 9.976 51.0874 9.418 51.6154 8.302H48.0694V5.764H54.6574V9.184C54.3814 9.856 53.9734 10.486 53.4334 11.074C52.9054 11.662 52.2334 12.148 51.4174 12.532C50.6014 12.904 49.6714 13.09 48.6274 13.09C47.3554 13.09 46.2274 12.82 45.2434 12.28C44.2714 11.728 43.5154 10.966 42.9754 9.994C42.4474 9.01 42.1834 7.888 42.1834 6.628C42.1834 5.38 42.4474 4.27 42.9754 3.298C43.5154 2.314 44.2714 1.552 45.2434 1.012C46.2154 0.46 47.3374 0.184 48.6094 0.184C50.2054 0.184 51.5254 0.568 52.5694 1.336C53.6134 2.104 54.2614 3.154 54.5134 4.486H50.7154ZM59.6945 0.309999V7.672C59.6945 8.356 59.8505 8.884 60.1625 9.256C60.4865 9.628 60.9725 9.814 61.6205 9.814C62.2685 9.814 62.7545 9.628 63.0785 9.256C63.4145 8.872 63.5825 8.344 63.5825 7.672V0.309999H67.1105V7.672C67.1105 8.836 66.8645 9.832 66.3725 10.66C65.8805 11.476 65.2085 12.094 64.3565 12.514C63.5165 12.922 62.5805 13.126 61.5485 13.126C60.5165 13.126 59.5925 12.922 58.7765 12.514C57.9725 12.094 57.3365 11.476 56.8685 10.66C56.4125 9.844 56.1845 8.848 56.1845 7.672V0.309999H59.6945ZM72.5809 10.3H76.5229V13H69.0529V0.309999H72.5809V10.3ZM85.9227 10.93H81.4227L80.7387 13H77.0307L81.6567 0.309999H85.7247L90.3327 13H86.6067L85.9227 10.93ZM85.0407 8.23L83.6727 4.126L82.3227 8.23H85.0407ZM92.3466 0.309999H95.9106L93.8406 5.386H91.4826L92.3466 0.309999ZM102.493 13.126C101.017 13.126 99.8053 12.778 98.8573 12.082C97.9093 11.374 97.3993 10.366 97.3273 9.058H101.089C101.125 9.502 101.257 9.826 101.485 10.03C101.713 10.234 102.007 10.336 102.367 10.336C102.691 10.336 102.955 10.258 103.159 10.102C103.375 9.934 103.483 9.706 103.483 9.418C103.483 9.046 103.309 8.758 102.961 8.554C102.613 8.35 102.049 8.122 101.269 7.87C100.441 7.594 99.7693 7.33 99.2533 7.078C98.7493 6.814 98.3053 6.436 97.9213 5.944C97.5493 5.44 97.3633 4.786 97.3633 3.982C97.3633 3.166 97.5673 2.47 97.9753 1.894C98.3833 1.306 98.9473 0.862 99.6673 0.561999C100.387 0.261999 101.203 0.112 102.115 0.112C103.591 0.112 104.767 0.459999 105.643 1.156C106.531 1.84 107.005 2.806 107.065 4.054H103.231C103.219 3.67 103.099 3.382 102.871 3.19C102.655 2.998 102.373 2.902 102.025 2.902C101.761 2.902 101.545 2.98 101.377 3.136C101.209 3.292 101.125 3.514 101.125 3.802C101.125 4.042 101.215 4.252 101.395 4.432C101.587 4.6 101.821 4.75 102.097 4.882C102.373 5.002 102.781 5.158 103.321 5.35C104.125 5.626 104.785 5.902 105.301 6.178C105.829 6.442 106.279 6.82 106.651 7.312C107.035 7.792 107.227 8.404 107.227 9.148C107.227 9.904 107.035 10.582 106.651 11.182C106.279 11.782 105.733 12.256 105.013 12.604C104.305 12.952 103.465 13.126 102.493 13.126Z" fill="#BD1E1E"/>
</svg>
