<svg width="15" height="14" viewBox="0 0 15 14" fill="none" xmlns="http://www.w3.org/2000/svg">
<path d="M11.3413 9.26698C11.1818 9.11393 10.9693 9.02847 10.7483 9.02847H10.5067C10.4471 9.02847 10.3897 9.00605 10.3458 8.96567C10.2502 8.87764 10.2436 8.72945 10.3262 8.62912C11.2563 7.49883 11.7224 6.0059 11.445 4.42421C11.0412 2.1426 9.04788 0.320595 6.64214 0.0415496C3.00774 -0.385226 -0.0509889 2.53655 0.395792 6.00821C0.687918 8.30623 2.59533 10.2103 4.98389 10.596C6.64468 10.8618 8.21199 10.4131 9.39653 9.51932C9.4978 9.4429 9.64045 9.44919 9.73058 9.53848C9.77755 9.58501 9.80397 9.64838 9.80397 9.71449V9.93126C9.80397 10.1409 9.88975 10.3415 10.0414 10.4863L13.4555 13.7476C13.8078 14.0841 14.3835 14.0841 14.7357 13.7476C15.088 13.4111 15.088 12.8612 14.7357 12.5247L11.3413 9.26698ZM5.9376 9.02847C3.7982 9.02847 2.07122 7.37881 2.07122 5.33521C2.07122 3.29161 3.7982 1.64196 5.9376 1.64196C8.07699 1.64196 9.80397 3.29161 9.80397 5.33521C9.80397 7.37881 8.07699 9.02847 5.9376 9.02847Z" fill="white"/>
</svg>
